<svg version="1.1" id="Capa_1" xmlns="http://www.w3.org/2000/svg" xmlns:xlink="http://www.w3.org/1999/xlink" x="0px" y="0px" viewBox="0 0 512 512" style="enable-background:new 0 0 512 512;" xml:space="preserve">
<g>
<g>
<path d="M151,0v150h60v30h90v-30h60V0H151z M331,120H181V30h150V120z" id="id_101" class="" fill="#267b8c"></path>
</g>
</g>
<g>
<g>
<path d="M0,332v150h60v30h90v-30h60V332H0z M180,452H30v-90h150V452z" id="id_102" class="" fill="#1c8499"></path>
</g>
</g>
<g>
<g>
<path d="M302,332v150h60v30h90v-30h60V332H302z M482,452H332v-90h150V452z" id="id_103" class="" fill="#1e8296"></path>
</g>
</g>
<g>
<g>
<polygon points="271,241 271,210 241,210 241,241 90,241 90,302 120,302 120,271 392,271 392,302 422,302 422,241 		" id="id_104" class="" fill="#1f8599"></polygon>
</g>
</g>
<g>
</g>
<g>
</g>
<g>
</g>
<g>
</g>
<g>
</g>
<g>
</g>
<g>
</g>
<g>
</g>
<g>
</g>
<g>
</g>
<g>
</g>
<g>
</g>
<g>
</g>
<g>
</g>
<g>
</g>
</svg>